# xmcd
# Track frame offsets:
# 150
# 18245
# 34222
# 54440
# 69027
# 83205
# 93272
# 109035
# 130132
# 149537
# 169015
# 186347
#
# Disc length: 2647 seconds
# Revision: 0
# Processed by: cddbd v1.5PL3 Copyright (c) Steve Scherf et al.
# Submitted via: VisiTrax 2.9.9.202 - For more info visit www.synapsa.com
#
DISCID=990a550c
DTITLE=Peter Viskinde - The Sound of Loneliness
DYEAR=1994
DGENRE=
TTITLE0=Tow Sparrows in a Hurricane
TTITLE1=Roses in The Garden
TTITLE2=Speed of The Sound Of Loneliness
TTITLE3=Something ` Bout You
TTITLE4=Long Time
TTITLE5=Won´t You Please Come Home
TTITLE6=Some Dreams
TTITLE7=Love Won´´ t Come To Town
TTITLE8=Remember Me
TTITLE9=Waitin`` for You
TTITLE10=Love of A Woman
TTITLE11=You´´ll Never Fall
EXTD=
EXTT0=
EXTT1=
EXTT2=
EXTT3=
EXTT4=
EXTT5=
EXTT6=
EXTT7=
EXTT8=
EXTT9=
EXTT10=
EXTT11=
PLAYORDER=
